<svg width="40" height="40" viewBox="0 0 40 40" fill="none" xmlns="http://www.w3.org/2000/svg">
<path fill-rule="evenodd" clip-rule="evenodd" d="M29.0289 23.97C28.5322 23.7217 26.0972 22.525 25.6439 22.3584C25.1906 22.1934 24.8606 22.1117 24.5289 22.6084C24.1989 23.1017 23.2506 24.2184 22.9622 24.5484C22.6722 24.88 22.3839 24.92 21.8889 24.6734C21.3939 24.4234 19.7972 23.9017 17.9056 22.215C16.4339 20.9017 15.4389 19.28 15.1506 18.7834C14.8622 18.2884 15.1189 18.02 15.3672 17.7734C15.5906 17.5517 15.8622 17.195 16.1106 16.9067C16.3589 16.6167 16.4406 16.41 16.6056 16.0784C16.7722 15.7484 16.6889 15.46 16.5639 15.2117C16.4406 14.9634 15.4506 12.525 15.0372 11.5334C14.6356 10.5684 14.2272 10.7 13.9239 10.6834C13.6339 10.67 13.3039 10.6667 12.9739 10.6667C12.6439 10.6667 12.1072 10.79 11.6539 11.2867C11.1989 11.7817 9.92057 12.98 9.92057 15.4184C9.92057 17.855 11.6939 20.21 11.9422 20.5417C12.1906 20.8717 15.4339 25.875 20.4022 28.02C21.5856 28.53 22.5072 28.835 23.2256 29.0617C24.4122 29.44 25.4922 29.3867 26.3456 29.2584C27.2956 29.1167 29.2756 28.06 29.6889 26.9034C30.1006 25.7467 30.1006 24.755 29.9772 24.5484C29.8539 24.3417 29.5239 24.2184 29.0272 23.97H29.0289ZM19.9922 36.3084H19.9856C17.0346 36.3089 14.1379 35.5156 11.5989 34.0117L10.9989 33.655L4.76224 35.2917L6.42724 29.2117L6.03557 28.5884C4.3858 25.9623 3.51273 22.923 3.51724 19.8217C3.52057 10.7384 10.9106 3.34836 19.9989 3.34836C24.3989 3.34836 28.5356 5.06503 31.6456 8.17836C33.1795 9.706 34.3954 11.5226 35.2227 13.5232C36.05 15.5237 36.4725 17.6685 36.4656 19.8334C36.4622 28.9167 29.0722 36.3084 19.9922 36.3084ZM34.0122 5.81336C32.1759 3.9649 29.991 2.49926 27.5841 1.50136C25.1771 0.503468 22.5961 -0.0068338 19.9906 2.82416e-05C9.06724 2.82416e-05 0.173906 8.8917 0.170573 19.82C0.165511 23.2979 1.07786 26.7157 2.81557 29.7284L0.00390625 40L10.5106 37.2434C13.417 38.8269 16.6741 39.6566 19.9839 39.6567H19.9922C30.9156 39.6567 39.8089 30.765 39.8122 19.835C39.8203 17.2305 39.3118 14.6502 38.3163 12.2434C37.3207 9.83664 35.8578 7.65115 34.0122 5.81336Z" fill="white"/>
</svg>
