<svg width="41" height="40" viewBox="0 0 41 40" fill="none" xmlns="http://www.w3.org/2000/svg">
<path fill-rule="evenodd" clip-rule="evenodd" d="M0.00390674 3.34182C0.00390674 2.45552 0.35599 1.60551 0.982703 0.9788C1.60941 0.352088 2.45942 4.45511e-06 3.34572 4.45511e-06H36.6584C37.0977 -0.000712911 37.5327 0.0852097 37.9387 0.252853C38.3447 0.420496 38.7136 0.666568 39.0244 0.976979C39.3351 1.28739 39.5816 1.65605 39.7497 2.06184C39.9177 2.46763 40.0041 2.9026 40.0039 3.34182V36.6545C40.0044 37.0939 39.9182 37.529 39.7504 37.9349C39.5826 38.3409 39.3363 38.7098 39.0258 39.0206C38.7152 39.3313 38.3464 39.5777 37.9405 39.7458C37.5346 39.9139 37.0996 40.0002 36.6603 40H3.34572C2.90672 40 2.47201 39.9135 2.06645 39.7454C1.66088 39.5774 1.2924 39.3311 0.982059 39.0206C0.671719 38.7101 0.425601 38.3414 0.257766 37.9358C0.0899304 37.5301 0.00366789 37.0954 0.00390674 36.6564V3.34182ZM15.8366 15.2509H21.253V17.9709C22.0348 16.4073 24.0348 15 27.0403 15C32.8021 15 34.1675 18.1145 34.1675 23.8291V34.4145H28.3366V25.1309C28.3366 21.8764 27.5548 20.04 25.5694 20.04C22.8148 20.04 21.6694 22.02 21.6694 25.1309V34.4145H15.8366V15.2509ZM5.83663 34.1655H11.6694V15H5.83663V34.1636V34.1655ZM12.5039 8.74909C12.5149 9.2485 12.426 9.74507 12.2425 10.2097C12.059 10.6743 11.7845 11.0975 11.4352 11.4546C11.0859 11.8117 10.6688 12.0954 10.2084 12.2891C9.74793 12.4828 9.25343 12.5826 8.75391 12.5826C8.25438 12.5826 7.75989 12.4828 7.29944 12.2891C6.839 12.0954 6.42188 11.8117 6.07258 11.4546C5.72327 11.0975 5.4488 10.6743 5.26529 10.2097C5.08177 9.74507 4.99291 9.2485 5.00391 8.74909C5.02549 7.76883 5.43006 6.83599 6.13097 6.15034C6.83188 5.4647 7.7734 5.08076 8.75391 5.08076C9.73441 5.08076 10.6759 5.4647 11.3768 6.15034C12.0778 6.83599 12.4823 7.76883 12.5039 8.74909Z" fill="white"/>
</svg>
