<svg width="38" height="38" viewBox="0 0 38 38" fill="none" xmlns="http://www.w3.org/2000/svg">
<path fill-rule="evenodd" clip-rule="evenodd" d="M11.4459 0.776666C13.4009 0.686666 14.0242 0.666666 19.0042 0.666666C23.9842 0.666666 24.6076 0.688333 26.5609 0.776666C28.5142 0.864999 29.8476 1.17667 31.0142 1.62833C32.2359 2.09 33.3442 2.81167 34.2609 3.745C35.1942 4.66 35.9142 5.76667 36.3742 6.99C36.8276 8.15667 37.1376 9.49 37.2276 11.44C37.3176 13.3983 37.3376 14.0217 37.3376 19C37.3376 23.98 37.3159 24.6033 37.2276 26.5583C37.1392 28.5083 36.8276 29.8417 36.3742 31.0083C35.9142 32.2318 35.193 33.3403 34.2609 34.2567C33.3442 35.19 32.2359 35.91 31.0142 36.37C29.8476 36.8233 28.5142 37.1333 26.5642 37.2233C24.6076 37.3133 23.9842 37.3333 19.0042 37.3333C14.0242 37.3333 13.4009 37.3117 11.4459 37.2233C9.4959 37.135 8.16257 36.8233 6.9959 36.37C5.77243 35.9099 4.66393 35.1888 3.74757 34.2567C2.81487 33.3411 2.09309 32.2331 1.63257 31.01C1.1809 29.8433 0.870898 28.51 0.780898 26.56C0.690898 24.6017 0.670898 23.9783 0.670898 19C0.670898 14.02 0.692565 13.3967 0.780898 11.4433C0.869232 9.49 1.1809 8.15667 1.63257 6.99C2.09377 5.7668 2.8161 4.65885 3.74923 3.74333C4.6643 2.81083 5.77169 2.08907 6.99423 1.62833C8.1609 1.17667 9.49423 0.866666 11.4442 0.776666H11.4459ZM26.4126 4.07667C24.4792 3.98833 23.8992 3.97 19.0042 3.97C14.1092 3.97 13.5292 3.98833 11.5959 4.07667C9.80757 4.15833 8.83757 4.45667 8.1909 4.70833C7.3359 5.04167 6.72423 5.43667 6.08257 6.07833C5.47431 6.67009 5.0062 7.39047 4.71257 8.18667C4.4609 8.83333 4.16257 9.80333 4.0809 11.5917C3.99257 13.525 3.97423 14.105 3.97423 19C3.97423 23.895 3.99257 24.475 4.0809 26.4083C4.16257 28.1967 4.4609 29.1667 4.71257 29.8133C5.0059 30.6083 5.47423 31.33 6.08257 31.9217C6.67423 32.53 7.3959 32.9983 8.1909 33.2917C8.83757 33.5433 9.80757 33.8417 11.5959 33.9233C13.5292 34.0117 14.1076 34.03 19.0042 34.03C23.9009 34.03 24.4792 34.0117 26.4126 33.9233C28.2009 33.8417 29.1709 33.5433 29.8176 33.2917C30.6726 32.9583 31.2842 32.5633 31.9259 31.9217C32.5342 31.33 33.0026 30.6083 33.2959 29.8133C33.5476 29.1667 33.8459 28.1967 33.9276 26.4083C34.0159 24.475 34.0342 23.895 34.0342 19C34.0342 14.105 34.0159 13.525 33.9276 11.5917C33.8459 9.80333 33.5476 8.83333 33.2959 8.18667C32.9626 7.33167 32.5676 6.72 31.9259 6.07833C31.3341 5.47012 30.6137 5.00202 29.8176 4.70833C29.1709 4.45667 28.2009 4.15833 26.4126 4.07667ZM16.6626 24.6517C17.9703 25.1961 19.4265 25.2695 20.7824 24.8595C22.1384 24.4495 23.3099 23.5815 24.0969 22.4037C24.8839 21.2259 25.2377 19.8115 25.0976 18.4018C24.9576 16.9922 24.3326 15.675 23.3292 14.675C22.6896 14.0358 21.9163 13.5464 21.0648 13.2419C20.2133 12.9375 19.3049 12.8256 18.4051 12.9144C17.5052 13.0031 16.6362 13.2903 15.8606 13.7552C15.085 14.2201 14.4221 14.8512 13.9197 15.6031C13.4173 16.3549 13.0879 17.2088 12.9551 18.1033C12.8223 18.9977 12.8895 19.9105 13.1518 20.7759C13.4141 21.6412 13.865 22.4377 14.4721 23.1079C15.0792 23.7781 15.8273 24.3053 16.6626 24.6517ZM12.3409 12.3367C13.2159 11.4616 14.2548 10.7675 15.3981 10.2939C16.5414 9.82037 17.7667 9.57662 19.0042 9.57662C20.2417 9.57662 21.4671 9.82037 22.6104 10.2939C23.7537 10.7675 24.7925 11.4616 25.6676 12.3367C26.5426 13.2117 27.2367 14.2505 27.7103 15.3938C28.1839 16.5371 28.4276 17.7625 28.4276 19C28.4276 20.2375 28.1839 21.4629 27.7103 22.6062C27.2367 23.7495 26.5426 24.7883 25.6676 25.6633C23.9003 27.4306 21.5035 28.4234 19.0042 28.4234C16.505 28.4234 14.1081 27.4306 12.3409 25.6633C10.5737 23.8961 9.58086 21.4992 9.58086 19C9.58086 16.5008 10.5737 14.1039 12.3409 12.3367ZM30.5176 10.98C30.7344 10.7754 30.908 10.5295 31.0281 10.2566C31.1481 9.98378 31.2122 9.68961 31.2166 9.39155C31.2209 9.09348 31.1654 8.79758 31.0534 8.52135C30.9413 8.24512 30.775 7.99418 30.5642 7.7834C30.3534 7.57261 30.1024 7.40626 29.8262 7.2942C29.55 7.18213 29.2541 7.12663 28.956 7.13097C28.658 7.13532 28.3638 7.19942 28.0909 7.31949C27.8181 7.43956 27.5721 7.61316 27.3676 7.83C26.9697 8.25172 26.752 8.81187 26.7604 9.39155C26.7689 9.97123 27.0029 10.5248 27.4128 10.9347C27.8228 11.3447 28.3763 11.5787 28.956 11.5872C29.5357 11.5956 30.0959 11.3778 30.5176 10.98Z" fill="white"/>
</svg>
