<svg width="41" height="40" viewBox="0 0 41 40" fill="none" xmlns="http://www.w3.org/2000/svg">
<path fill-rule="evenodd" clip-rule="evenodd" d="M40.0039 20C40.0039 31.045 31.0489 40 20.0039 40C8.95891 40 0.00390625 31.045 0.00390625 20C0.00390625 8.955 8.95891 0 20.0039 0C31.0489 0 40.0039 8.955 40.0039 20ZM20.7206 14.765C18.7756 15.5733 14.8872 17.2483 9.05724 19.7883C8.11057 20.165 7.61391 20.5333 7.56891 20.8933C7.49224 21.5033 8.25557 21.7433 9.29224 22.0683C9.43391 22.1133 9.58057 22.1583 9.73057 22.2083C10.7522 22.54 12.1256 22.9283 12.8389 22.9433C13.4872 22.9567 14.2106 22.69 15.0089 22.1433C20.4556 18.465 23.2672 16.6067 23.4439 16.5667C23.5689 16.5383 23.7422 16.5017 23.8589 16.6067C23.9756 16.71 23.9639 16.9067 23.9522 16.96C23.8756 17.2817 20.8856 20.0633 19.3356 21.5033C18.8522 21.9517 18.5106 22.27 18.4406 22.3433C18.2839 22.505 18.1239 22.66 17.9706 22.8083C17.0206 23.7217 16.3106 24.4083 18.0106 25.5283C18.8272 26.0667 19.4806 26.5117 20.1322 26.955C20.8439 27.44 21.5539 27.9233 22.4739 28.5267C22.7072 28.68 22.9306 28.8383 23.1489 28.9933C23.9772 29.585 24.7222 30.115 25.6422 30.0317C26.1756 29.9817 26.7289 29.48 27.0089 27.9817C27.6706 24.4383 28.9739 16.765 29.2756 13.6017C29.2939 13.339 29.2827 13.0751 29.2422 12.815C29.218 12.6049 29.1157 12.4116 28.9556 12.2733C28.7172 12.0783 28.3472 12.0367 28.1806 12.04C27.4289 12.0533 26.2756 12.455 20.7206 14.765Z" fill="white"/>
</svg>
